<?xml version="1.0" standalone="no"?>
<!DOCTYPE svg PUBLIC "-//W3C//DTD SVG 1.0//EN" "http://www.w3.org/TR/2001/REC-SVG-20010904/DTD/svg10.dtd">
<svg xmlns="http://www.w3.org/2000/svg" xmlns:xlink="http://www.w3.org/1999/xlink" id="body_1" width="8" height="8">

<defs>
    <clipPath  id="1">

    <path id=""  clip-rule="evenodd" transform="matrix(1 0 0 1 0 0)"  d="M6 0L6 6L6 6L0 6L0 6L0 0L0 0L6 0z" />    </clipPath>
</defs>

<g transform="matrix(1.3333 0 0 1.3333 0 0)">
	<g clip-path="url(#1)" >
    <path id=""  transform="matrix(1 0 0 -1 0 6)"  d="M5.9999995 3L5.9999995 3L5.9999995 3L5.47125 3.52875L5.47125 3.52875L3.375 1.43625L3.375 1.43625L3.375 6L3.375 6L2.625 6L2.625 6L2.625 1.43625L2.625 1.43625L0.53250027 3.5325L0.53250027 3.5325L0 3L0 3L3 -2.6226826E-07L3 -2.6226826E-07L5.9999995 3z" stroke="#FFFFFF" stroke-width="1" fill="#9873FF" fill-rule="nonzero" />
	</g>
</g>
</svg>